# xmcd
#
# Track frame offsets: 
#        150
#        12577
#        23440
#        33430
#        45240
#        54130
#        63432
#        73130
#        85317
#        94737
#        106695
#        118237
#        129000
#        138712
#        148012
#        158897
#        169885
#        180162
#        192117
#        201992
#        213357
#        224402
#        234265
#        246875
#        257815
#        268340
#
# Disc length: 3737 seconds
#
# Revision: 5
# Processed by: cddbd v1.5.2PL0 Copyright (c) Steve Scherf et al.
# Submitted via: ExactAudioCopyFreeDBPlugin 1.0
#
DISCID=710e971a
DTITLE=Various Artist - The Specialty Story [disc 4]
DYEAR=1994
DGENRE=R&B
TTITLE0=Tony Allen and The Champs - Nite Owl
TTITLE1=Little Richard - Tutti Frutti
TTITLE2=Ernest Kador - Eternity
TTITLE3=Li'l Millet and His Creoles - Rich Woman
TTITLE4=Clifton Chenier - Squeeze Box Boogie
TTITLE5=The Soul Stirrers featuring Sam Cooke - Touch the Hem of His G
TTITLE5=arment
TTITLE6=Little Richard - Long Tall Sally
TTITLE7=Little Richard - Slippin' and Slidin' (Peepin' and Hidin')
TTITLE8=Arthur Lee Maye and The Crowns - Oh-Rooba-Lee
TTITLE9=Arthur Lee Maye and The Crowns - Gloria
TTITLE10=Bob Landers with Willie Joe and His Unitar - Cherokee Dance
TTITLE11=Little Richard - Rip It Up
TTITLE12=Little Richard - Ready Teddy
TTITLE13=Vernon Green and The Phantoms - Sweet Breeze
TTITLE14=Roy Montrell - (Every Time I Hear That) Mellow Saxaphone
TTITLE15=Little Richard - She's Got It
TTITLE16=Little Richard - Heeby Jeebies
TTITLE17=Wynona Carr - Should I Ever Love Again^
TTITLE18=Big Boy Myles and The Shaw-Wees - Just to Hold My Hand
TTITLE19=Little Richard - The Girl Can't Help It
TTITLE20=Little Richard - All Around the World
TTITLE21=Art Neville - Oooh-Whee Baby
TTITLE22=Larry Williams - Just Because
TTITLE23=Little Richard - Lucille
TTITLE24=Little Richard - Send Me Some Lovin'
TTITLE25=Eugene Church - Open Up Your Heart
EXTD=
EXTT0=
EXTT1=
EXTT2=
EXTT3=
EXTT4=
EXTT5=
EXTT6=
EXTT7=
EXTT8=
EXTT9=
EXTT10=
EXTT11=
EXTT12=
EXTT13=
EXTT14=
EXTT15=
EXTT16=
EXTT17=
EXTT18=
EXTT19=
EXTT20=
EXTT21=
EXTT22=
EXTT23=
EXTT24=
EXTT25=
PLAYORDER=
